<svg width="223" height="52" viewBox="0 0 223 52" fill="none" xmlns="http://www.w3.org/2000/svg">
<g filter="url(#filter0_f_87_704)">
<path d="M33.0586 31.9492C35.3503 31.9492 37.1016 31.3307 38.3125 30.0938C39.5365 28.8568 40.1484 27.0273 40.1484 24.6055C40.1484 22.1706 39.5299 20.4909 38.293 19.5664C37.056 18.6419 35.3503 18.1797 33.1758 18.1797C31.0013 18.1797 29.276 18.7852 28 19.9961C26.737 21.194 26.1055 22.9388 26.1055 25.2305C26.1055 29.7096 28.4232 31.9492 33.0586 31.9492ZM10.4609 25.543C10.4609 20.569 12.4727 16.7474 16.4961 14.0781C20.5326 11.4089 26.1185 10.0742 33.2539 10.0742C40.3893 10.0742 45.9036 11.3112 49.7969 13.7852C53.6901 16.2591 55.6367 19.7617 55.6367 24.293C55.6367 29.2018 53.5729 33.0299 49.4453 35.7773C45.3177 38.5117 39.6797 39.8789 32.5312 39.8789C25.3828 39.8789 19.9141 38.6094 16.125 36.0703C12.349 33.5182 10.4609 30.0091 10.4609 25.543ZM93.8398 39.1172H66.3594C64.1849 39.1172 62.5312 39.0781 61.3984 39L61.4766 34.2539L61.6328 27.8672C61.6589 27.5026 61.7695 24.9831 61.9648 20.3086C62.1732 15.6211 62.3294 12.5091 62.4336 10.9727C64.3997 10.7513 66.8346 10.6406 69.7383 10.6406C72.6549 10.6406 75.0638 10.6536 76.9648 10.6797L76.5156 20.4453C76.4896 21.7344 76.3268 25.5755 76.0273 31.9688L91.0859 31.6172C92.5964 31.6172 93.8268 31.6888 94.7773 31.832C94.7773 32.6654 94.6732 33.7526 94.4648 35.0938L93.8398 39.1172ZM103.879 25.543V10.8555C105.754 10.7773 108.384 10.7383 111.77 10.7383C115.168 10.7383 117.759 10.7057 119.543 10.6406L119.465 22.3203C119.23 26.9297 118.534 30.5299 117.375 33.1211C116.75 34.5143 115.995 35.6927 115.109 36.6562C112.609 39.3646 108.156 40.9857 101.75 41.5195C100.617 39.7747 99.3021 37.3984 97.8047 34.3906C99.9531 34.026 101.503 33.1406 102.453 31.7344C103.404 30.3281 103.879 28.2643 103.879 25.543ZM145.832 39.8789C140.975 39.8789 137.206 39.5208 134.523 38.8047C128.417 37.1901 125.363 33.401 125.363 27.4375L125.48 19.7812C125.52 18.6094 125.559 17.0599 125.598 15.1328C125.65 13.2057 125.741 11.819 125.871 10.9727L135.324 10.9336L141.359 10.8164C141.333 11.181 141.32 11.7083 141.32 12.3984C141.32 13.0885 141.314 13.5898 141.301 13.9023L140.676 27.0664C140.676 28.6419 141.177 29.8594 142.18 30.7188C143.195 31.5781 144.556 32.0078 146.262 32.0078C147.98 32.0078 149.374 31.4089 150.441 30.2109C151.522 29.013 152.102 27.3203 152.18 25.1328L152.688 11.1875C156.086 11.0833 161.125 10.9857 167.805 10.8945C167.805 13.3685 167.688 16.7409 167.453 21.0117C167.219 25.2695 167.017 27.7174 166.848 28.3555C166.001 31.4414 164.419 33.8438 162.102 35.5625C159.784 37.2682 157.225 38.4141 154.426 39C151.626 39.5859 148.762 39.8789 145.832 39.8789ZM188.801 18.2188L188.156 31.9688C191.594 31.9297 194.003 31.6367 195.383 31.0898C197.961 30.0872 199.25 28.0495 199.25 24.9766C199.25 22.4375 198.599 20.6536 197.297 19.625C195.995 18.5833 194.576 18.0625 193.039 18.0625C192.036 18.0625 190.624 18.1146 188.801 18.2188ZM173.137 39.4297C173.384 37.8932 173.762 34.2539 174.27 28.5117C174.79 22.7565 175.155 17.0794 175.363 11.4805C183.462 10.8034 190.103 10.4648 195.285 10.4648C201.717 10.4648 206.477 11.9688 209.562 14.9766C211.776 17.138 212.883 20.0482 212.883 23.707C212.883 29.2148 211.307 33.1536 208.156 35.5234C206.008 37.138 202.87 38.1927 198.742 38.6875C194.628 39.1823 188.846 39.4297 181.398 39.4297H173.137Z" fill="#FF8ADE"/>
</g>
<path d="M36.0586 34.9492C38.3503 34.9492 40.1016 34.3307 41.3125 33.0938C42.5365 31.8568 43.1484 30.0273 43.1484 27.6055C43.1484 25.1706 42.5299 23.4909 41.293 22.5664C40.056 21.6419 38.3503 21.1797 36.1758 21.1797C34.0013 21.1797 32.276 21.7852 31 22.9961C29.737 24.194 29.1055 25.9388 29.1055 28.2305C29.1055 32.7096 31.4232 34.9492 36.0586 34.9492ZM13.4609 28.543C13.4609 23.569 15.4727 19.7474 19.4961 17.0781C23.5326 14.4089 29.1185 13.0742 36.2539 13.0742C43.3893 13.0742 48.9036 14.3112 52.7969 16.7852C56.6901 19.2591 58.6367 22.7617 58.6367 27.293C58.6367 32.2018 56.5729 36.0299 52.4453 38.7773C48.3177 41.5117 42.6797 42.8789 35.5312 42.8789C28.3828 42.8789 22.9141 41.6094 19.125 39.0703C15.349 36.5182 13.4609 33.0091 13.4609 28.543ZM96.8398 42.1172H69.3594C67.1849 42.1172 65.5312 42.0781 64.3984 42L64.4766 37.2539L64.6328 30.8672C64.6589 30.5026 64.7695 27.9831 64.9648 23.3086C65.1732 18.6211 65.3294 15.5091 65.4336 13.9727C67.3997 13.7513 69.8346 13.6406 72.7383 13.6406C75.6549 13.6406 78.0638 13.6536 79.9648 13.6797L79.5156 23.4453C79.4896 24.7344 79.3268 28.5755 79.0273 34.9688L94.0859 34.6172C95.5964 34.6172 96.8268 34.6888 97.7773 34.832C97.7773 35.6654 97.6732 36.7526 97.4648 38.0938L96.8398 42.1172ZM106.879 28.543V13.8555C108.754 13.7773 111.384 13.7383 114.77 13.7383C118.168 13.7383 120.759 13.7057 122.543 13.6406L122.465 25.3203C122.23 29.9297 121.534 33.5299 120.375 36.1211C119.75 37.5143 118.995 38.6927 118.109 39.6562C115.609 42.3646 111.156 43.9857 104.75 44.5195C103.617 42.7747 102.302 40.3984 100.805 37.3906C102.953 37.026 104.503 36.1406 105.453 34.7344C106.404 33.3281 106.879 31.2643 106.879 28.543ZM148.832 42.8789C143.975 42.8789 140.206 42.5208 137.523 41.8047C131.417 40.1901 128.363 36.401 128.363 30.4375L128.48 22.7812C128.52 21.6094 128.559 20.0599 128.598 18.1328C128.65 16.2057 128.741 14.819 128.871 13.9727L138.324 13.9336L144.359 13.8164C144.333 14.181 144.32 14.7083 144.32 15.3984C144.32 16.0885 144.314 16.5898 144.301 16.9023L143.676 30.0664C143.676 31.6419 144.177 32.8594 145.18 33.7188C146.195 34.5781 147.556 35.0078 149.262 35.0078C150.98 35.0078 152.374 34.4089 153.441 33.2109C154.522 32.013 155.102 30.3203 155.18 28.1328L155.688 14.1875C159.086 14.0833 164.125 13.9857 170.805 13.8945C170.805 16.3685 170.688 19.7409 170.453 24.0117C170.219 28.2695 170.017 30.7174 169.848 31.3555C169.001 34.4414 167.419 36.8438 165.102 38.5625C162.784 40.2682 160.225 41.4141 157.426 42C154.626 42.5859 151.762 42.8789 148.832 42.8789ZM191.801 21.2188L191.156 34.9688C194.594 34.9297 197.003 34.6367 198.383 34.0898C200.961 33.0872 202.25 31.0495 202.25 27.9766C202.25 25.4375 201.599 23.6536 200.297 22.625C198.995 21.5833 197.576 21.0625 196.039 21.0625C195.036 21.0625 193.624 21.1146 191.801 21.2188ZM176.137 42.4297C176.384 40.8932 176.762 37.2539 177.27 31.5117C177.79 25.7565 178.155 20.0794 178.363 14.4805C186.462 13.8034 193.103 13.4648 198.285 13.4648C204.717 13.4648 209.477 14.9688 212.562 17.9766C214.776 20.138 215.883 23.0482 215.883 26.707C215.883 32.2148 214.307 36.1536 211.156 38.5234C209.008 40.138 205.87 41.1927 201.742 41.6875C197.628 42.1823 191.846 42.4297 184.398 42.4297H176.137Z" fill="#968DFF"/>
<defs>
<filter id="filter0_f_87_704" x="0.460938" y="0.0742188" width="222.422" height="51.4453" filterUnits="userSpaceOnUse" color-interpolation-filters="sRGB">
<feFlood flood-opacity="0" result="BackgroundImageFix"/>
<feBlend mode="normal" in="SourceGraphic" in2="BackgroundImageFix" result="shape"/>
<feGaussianBlur stdDeviation="5" result="effect1_foregroundBlur_87_704"/>
</filter>
</defs>
</svg>
